name rise35.5848peak51.9257fall54.8793.mot
datacolumns 19
datarows 35
range 13.58161300000000 13.63827600000000
endheader
time	ground_force1_vx	ground_force1_vy	ground_force1_vz	ground_force1_px	ground_force1_py	ground_force1_pz	ground_force2_vx	ground_force2_vy	ground_force2_vz	ground_force2_px	ground_force2_py	ground_force2_pz	ground_torque1_x	ground_torque1_y	ground_torque1_z	ground_torque2_x	ground_torque2_y	ground_torque2_z	
13.58161300000000	-46.29587500000000	797.01769500000000	54.12921700000000	0.08666000000000	0.00000000000000	0.12393300000000	-6.00995600000000	46.18491500000000	8.02717100000000	0.31318800000000	0.00000000000000	-0.06298400000000	0.00000000000000	20.30568400000000	0.00000000000000	0.00000000000000	4.59693500000000	0.00000000000000	
13.58327400000000	-46.60667000000000	794.87193900000000	53.92201700000000	0.08611100000000	0.00000000000000	0.12387800000000	-6.55235900000000	52.57540700000000	8.92698800000000	0.31760900000000	0.00000000000000	-0.06319100000000	0.00000000000000	20.25100100000000	0.00000000000000	0.00000000000000	5.17753800000000	0.00000000000000	
13.58494500000000	-46.92649700000000	792.62002199999995	53.69275400000000	0.08557000000000	0.00000000000000	0.12381800000000	-7.00337100000000	58.84261000000000	9.74907300000000	0.32163000000000	0.00000000000000	-0.06339500000000	0.00000000000000	20.19711800000000	0.00000000000000	0.00000000000000	5.72341800000000	0.00000000000000	
13.58661200000000	-47.25593300000000	790.26150199999995	53.44127900000000	0.08503500000000	0.00000000000000	0.12375400000000	-7.35328800000000	64.91955400000001	10.48050000000000	0.32529500000000	0.00000000000000	-0.06359500000000	0.00000000000000	20.14418000000000	0.00000000000000	0.00000000000000	6.22551400000000	0.00000000000000	
13.58827400000000	-47.59551900000000	787.79593499999999	53.16748300000000	0.08450600000000	0.00000000000000	0.12368600000000	-7.59758500000000	70.76588000000000	11.11417600000000	0.32864100000000	0.00000000000000	-0.06379400000000	0.00000000000000	20.09232600000000	0.00000000000000	0.00000000000000	6.67807900000000	0.00000000000000	
13.58994500000000	-47.94575500000000	785.22286899999995	52.87129800000000	0.08398300000000	0.00000000000000	0.12361400000000	-7.73652000000000	76.36707500000000	11.64849300000000	0.33170100000000	0.00000000000000	-0.06399300000000	0.00000000000000	20.04168400000000	0.00000000000000	0.00000000000000	7.07859700000000	0.00000000000000	
13.59160800000000	-48.30709900000000	782.54184399999997	52.55270000000000	0.08346400000000	0.00000000000000	0.12353800000000	-7.77439800000000	81.73171000000001	12.08660400000000	0.33450200000000	0.00000000000000	-0.06419100000000	0.00000000000000	19.99237300000000	0.00000000000000	0.00000000000000	7.42744800000000	0.00000000000000	
13.59327900000000	-48.67995900000000	779.75238000000002	52.21170400000000	0.08294800000000	0.00000000000000	0.12345800000000	-7.71864600000000	86.88726100000000	12.43542400000000	0.33706900000000	0.00000000000000	-0.06439000000000	0.00000000000000	19.94450100000000	0.00000000000000	0.00000000000000	7.72738700000000	0.00000000000000	
13.59494300000000	-49.06469300000000	776.85397899999998	51.84836800000000	0.08243600000000	0.00000000000000	0.12337400000000	-7.57877900000000	91.87510200000000	12.70449800000000	0.33942100000000	0.00000000000000	-0.06459000000000	0.00000000000000	19.89816500000000	0.00000000000000	0.00000000000000	7.98292400000000	0.00000000000000	
13.59660900000000	-49.46160200000000	773.84611900000004	51.46279100000000	0.08192600000000	0.00000000000000	0.12328500000000	-7.36538500000000	96.74523000000001	12.90484800000000	0.34157800000000	0.00000000000000	-0.06479200000000	0.00000000000000	19.85345300000000	0.00000000000000	0.00000000000000	8.19966000000000	0.00000000000000	
13.59827600000000	-49.87092700000000	770.72825000000000	51.05511300000000	0.08141800000000	0.00000000000000	0.12319300000000	-7.08919300000000	101.55119999999999	13.04790800000000	0.34355600000000	0.00000000000000	-0.06499500000000	0.00000000000000	19.81043800000000	0.00000000000000	0.00000000000000	8.38365400000000	0.00000000000000	
13.59994600000000	-50.29284600000000	767.49979099999996	50.62551700000000	0.08091000000000	0.00000000000000	0.12309700000000	-6.76029300000000	106.34563199999999	13.14459900000000	0.34536800000000	0.00000000000000	-0.06520000000000	0.00000000000000	19.76918200000000	0.00000000000000	0.00000000000000	8.54086200000000	0.00000000000000	
13.60162000000000	-50.72746900000000	764.16013199999998	50.17422300000000	0.08040200000000	0.00000000000000	0.12299600000000	-6.38753900000000	111.17655000000001	13.20460500000000	0.34702800000000	0.00000000000000	-0.06540600000000	0.00000000000000	19.72973300000000	0.00000000000000	0.00000000000000	8.67668100000000	0.00000000000000	
13.60327800000000	-51.17483600000000	760.70862599999998	49.70149400000000	0.07989400000000	0.00000000000000	0.12289200000000	-5.97814900000000	116.08469700000001	13.23587300000000	0.34854700000000	0.00000000000000	-0.06561500000000	0.00000000000000	19.69212600000000	0.00000000000000	0.00000000000000	8.79562100000000	0.00000000000000	
13.60495200000000	-51.63491300000000	757.14459099999999	49.20763000000000	0.07938400000000	0.00000000000000	0.12278400000000	-5.53750000000000	121.10183600000001	13.24432300000000	0.34993400000000	0.00000000000000	-0.06582600000000	0.00000000000000	19.65638200000000	0.00000000000000	0.00000000000000	8.90110000000000	0.00000000000000	
13.60660900000000	-52.10758800000000	753.46730900000000	48.69297100000000	0.07887100000000	0.00000000000000	0.12267300000000	-5.06910100000000	126.25002100000000	13.23376900000000	0.35120000000000	0.00000000000000	-0.06603900000000	0.00000000000000	19.62250700000000	0.00000000000000	0.00000000000000	8.99536500000000	0.00000000000000	
13.60827800000000	-52.59266900000000	749.67602799999997	48.15789200000000	0.07835600000000	0.00000000000000	0.12255800000000	-4.57470500000000	131.54168799999999	13.20600600000000	0.35235100000000	0.00000000000000	-0.06625400000000	0.00000000000000	19.59049400000000	0.00000000000000	0.00000000000000	9.07951300000000	0.00000000000000	
13.60994400000000	-53.08988300000000	745.76995799999997	47.60280700000000	0.07783700000000	0.00000000000000	0.12243900000000	-4.05454000000000	136.98042899999999	13.16103300000000	0.35339700000000	0.00000000000000	-0.06647100000000	0.00000000000000	19.56031700000000	0.00000000000000	0.00000000000000	9.15360100000000	0.00000000000000	
13.61161100000000	-53.59886900000000	741.74827600000003	47.02816400000000	0.07731400000000	0.00000000000000	0.12231600000000	-3.50760800000000	142.56226200000000	13.09737000000000	0.35434300000000	0.00000000000000	-0.06669000000000	0.00000000000000	19.53193800000000	0.00000000000000	0.00000000000000	9.21681700000000	0.00000000000000	
13.61327900000000	-54.11918200000000	737.61012500000004	46.43444600000000	0.07678500000000	0.00000000000000	0.12219100000000	-2.93202400000000	148.27719700000000	13.01242500000000	0.35519600000000	0.00000000000000	-0.06691100000000	0.00000000000000	19.50530200000000	0.00000000000000	0.00000000000000	9.26768200000000	0.00000000000000	
13.61494700000000	-54.65028600000000	733.35461999999995	45.82216900000000	0.07625100000000	0.00000000000000	0.12206200000000	-2.32535400000000	154.11095000000000	12.90287800000000	0.35596100000000	0.00000000000000	-0.06713400000000	0.00000000000000	19.48033700000000	0.00000000000000	0.00000000000000	9.30427500000000	0.00000000000000	
13.61661300000000	-55.19155400000000	728.98084500000004	45.19188000000000	0.07571100000000	0.00000000000000	0.12193000000000	-1.68494600000000	160.04663199999999	12.76505400000000	0.35664300000000	0.00000000000000	-0.06735800000000	0.00000000000000	19.45695600000000	0.00000000000000	0.00000000000000	9.32444400000000	0.00000000000000	
13.61828000000000	-55.74226900000000	724.48786199999995	44.54415800000000	0.07516400000000	0.00000000000000	0.12179500000000	-1.00820800000000	166.06630000000001	12.59524500000000	0.35724800000000	0.00000000000000	-0.06758400000000	0.00000000000000	19.43505500000000	0.00000000000000	0.00000000000000	9.32600400000000	0.00000000000000	
13.61994600000000	-56.30161900000000	719.87471300000004	43.87961000000000	0.07460900000000	0.00000000000000	0.12165600000000	-0.29283500000000	172.15228900000000	12.38998900000000	0.35778000000000	0.00000000000000	-0.06781200000000	0.00000000000000	19.41451200000000	0.00000000000000	0.00000000000000	9.30690000000000	0.00000000000000	
13.62161000000000	-56.86870300000000	715.14042099999995	43.19887000000000	0.07404600000000	0.00000000000000	0.12151600000000	0.46302200000000	178.28825699999999	12.14627500000000	0.35824200000000	0.00000000000000	-0.06804100000000	0.00000000000000	19.39519100000000	0.00000000000000	0.00000000000000	9.26533600000000	0.00000000000000	
13.62327800000000	-57.44252300000000	710.28400499999998	42.50260100000000	0.07347500000000	0.00000000000000	0.12137200000000	1.26064600000000	184.45993500000000	11.86168200000000	0.35863800000000	0.00000000000000	-0.06827100000000	0.00000000000000	19.37693800000000	0.00000000000000	0.00000000000000	9.19985900000000	0.00000000000000	
13.62494300000000	-58.02199200000000	705.30447500000002	41.79148600000000	0.07289500000000	0.00000000000000	0.12122600000000	2.10070800000000	190.65557500000000	11.53445900000000	0.35897100000000	0.00000000000000	-0.06850200000000	0.00000000000000	19.35958200000000	0.00000000000000	0.00000000000000	9.10940900000000	0.00000000000000	
13.62661400000000	-58.60593000000000	700.20084899999995	41.06623500000000	0.07230600000000	0.00000000000000	0.12107700000000	2.98326400000000	196.86613900000000	11.16353700000000	0.35924600000000	0.00000000000000	-0.06873400000000	0.00000000000000	19.34293500000000	0.00000000000000	0.00000000000000	8.99333800000000	0.00000000000000	
13.62828700000000	-59.19306700000000	694.97215500000004	40.32757800000000	0.07170700000000	0.00000000000000	0.12092600000000	3.90779600000000	203.08524199999999	10.74850500000000	0.35946400000000	0.00000000000000	-0.06896700000000	0.00000000000000	19.32679500000000	0.00000000000000	0.00000000000000	8.85138900000000	0.00000000000000	
13.62995000000000	-59.78204600000000	689.61744199999998	39.57626300000000	0.07109800000000	0.00000000000000	0.12077300000000	4.87328000000000	209.30892800000001	10.28954100000000	0.35962800000000	0.00000000000000	-0.06920000000000	0.00000000000000	19.31094100000000	0.00000000000000	0.00000000000000	8.68366600000000	0.00000000000000	
13.63160800000000	-60.37142200000000	684.13579200000004	38.81305700000000	0.07047800000000	0.00000000000000	0.12061800000000	5.87827400000000	215.53531899999999	9.78732200000000	0.35974200000000	0.00000000000000	-0.06943300000000	0.00000000000000	19.29513900000000	0.00000000000000	0.00000000000000	8.49057900000000	0.00000000000000	
13.63327600000000	-60.95966900000000	678.52632800000003	38.03874400000000	0.06984700000000	0.00000000000000	0.12046000000000	6.92101300000000	221.76418400000000	9.24293000000000	0.35980600000000	0.00000000000000	-0.06966700000000	0.00000000000000	19.27913800000000	0.00000000000000	0.00000000000000	8.27278700000000	0.00000000000000	
13.63494800000000	-61.54517800000000	672.78822900000000	37.25412000000000	0.06920600000000	0.00000000000000	0.12030200000000	7.99950400000000	227.99649400000001	8.65774000000000	0.35982300000000	0.00000000000000	-0.06990000000000	0.00000000000000	19.26267100000000	0.00000000000000	0.00000000000000	8.03113700000000	0.00000000000000	
13.63661000000000	-62.12626600000000	666.92074200000002	36.45999500000000	0.06855300000000	0.00000000000000	0.12014100000000	9.11161700000000	234.23397700000001	8.03332600000000	0.35979600000000	0.00000000000000	-0.07013300000000	0.00000000000000	19.24546000000000	0.00000000000000	0.00000000000000	7.76660200000000	0.00000000000000	
13.63827600000000	-62.70117500000000	660.92319499999996	35.65718900000000	0.06788800000000	0.00000000000000	0.11997900000000	10.25515800000000	240.47873200000001	7.37137500000000	0.35972700000000	0.00000000000000	-0.07036500000000	0.00000000000000	19.22720900000000	0.00000000000000	0.00000000000000	7.48023500000000	0.00000000000000	
